# Nexus Realms - Nexus Crystal V5
mtllib nexus_crystal.mtl

v 0.051961524 -0.045000000 0.090000000
v 0.103923048 -0.045000000 0.000000000
v 0.051961524 -0.045000000 -0.090000000
v -0.051961524 -0.045000000 -0.090000000
v -0.103923048 -0.045000000 -0.000000000
v -0.051961524 -0.045000000 0.090000000
v 0.000000000 0.195000000 0.000000000
v 0.000000000 -0.195000000 0.000000000
v 0.108253175 -0.093750000 0.187500000
v 0.216506351 -0.093750000 0.000000000
v 0.108253175 -0.093750000 -0.187500000
v -0.108253175 -0.093750000 -0.187500000
v -0.216506351 -0.093750000 -0.000000000
v -0.108253175 -0.093750000 0.187500000
v 0.000000000 0.406250000 0.000000000
v 0.000000000 -0.406250000 0.000000000
vt 0.500000 0.060000
vt 0.080000 0.940000
vt 0.920000 0.940000
vt 0.914000 0.060000
vt 0.086000 0.060000
vt 0.500000 0.940000
vt 0.512000 0.060000
vt 0.092000 0.940000
vt 0.908000 0.940000
vt 0.902000 0.060000
vt 0.098000 0.060000
vt 0.500000 0.940000
vt 0.524000 0.060000
vt 0.104000 0.940000
vt 0.896000 0.940000
vt 0.890000 0.060000
vt 0.110000 0.060000
vt 0.500000 0.940000
vt 0.500000 0.060000
vt 0.080000 0.940000
vt 0.920000 0.940000
vt 0.914000 0.060000
vt 0.086000 0.060000
vt 0.500000 0.940000
vt 0.512000 0.060000
vt 0.092000 0.940000
vt 0.908000 0.940000
vt 0.902000 0.060000
vt 0.098000 0.060000
vt 0.500000 0.940000
vt 0.524000 0.060000
vt 0.104000 0.940000
vt 0.896000 0.940000
vt 0.890000 0.060000
vt 0.110000 0.060000
vt 0.500000 0.940000
vt 0.500000 0.060000
vt 0.080000 0.940000
vt 0.920000 0.940000
vt 0.914000 0.060000
vt 0.086000 0.060000
vt 0.500000 0.940000
vt 0.512000 0.060000
vt 0.092000 0.940000
vt 0.908000 0.940000
vt 0.902000 0.060000
vt 0.098000 0.060000
vt 0.500000 0.940000
vt 0.524000 0.060000
vt 0.104000 0.940000
vt 0.896000 0.940000
vt 0.890000 0.060000
vt 0.110000 0.060000
vt 0.500000 0.940000
vt 0.500000 0.060000
vt 0.080000 0.940000
vt 0.920000 0.940000
vt 0.914000 0.060000
vt 0.086000 0.060000
vt 0.500000 0.940000
vt 0.512000 0.060000
vt 0.092000 0.940000
vt 0.908000 0.940000
vt 0.902000 0.060000
vt 0.098000 0.060000
vt 0.500000 0.940000
vt 0.524000 0.060000
vt 0.104000 0.940000
vt 0.896000 0.940000
vt 0.890000 0.060000
vt 0.110000 0.060000
vt 0.500000 0.940000
vn 0.810884854 0.351123442 0.468164589
vn 0.742610657 -0.514495755 0.428746463
vn 0.810884854 0.351123442 -0.468164589
vn 0.742610657 -0.514495755 -0.428746463
vn 0.000000000 0.351123442 -0.936329178
vn 0.000000000 -0.514495755 -0.857492926
vn -0.810884854 0.351123442 -0.468164589
vn -0.742610657 -0.514495755 -0.428746463
vn -0.810884854 0.351123442 0.468164589
vn -0.742610657 -0.514495755 0.428746463
vn -0.000000000 0.351123442 0.936329178
vn -0.000000000 -0.514495755 0.857492926
vn 0.810884854 0.351123442 0.468164589
vn 0.742610657 -0.514495755 0.428746463
vn 0.810884854 0.351123442 -0.468164589
vn 0.742610657 -0.514495755 -0.428746463
vn 0.000000000 0.351123442 -0.936329178
vn 0.000000000 -0.514495755 -0.857492926
vn -0.810884854 0.351123442 -0.468164589
vn -0.742610657 -0.514495755 -0.428746463
vn -0.810884854 0.351123442 0.468164589
vn -0.742610657 -0.514495755 0.428746463
vn -0.000000000 0.351123442 0.936329178
vn -0.000000000 -0.514495755 0.857492926
usemtl nexus_core
f 1/1/1 2/2/1 7/3/1
f 2/4/2 1/5/2 8/6/2
f 2/7/3 3/8/3 7/9/3
f 3/10/4 2/11/4 8/12/4
f 3/13/5 4/14/5 7/15/5
f 4/16/6 3/17/6 8/18/6
f 4/19/7 5/20/7 7/21/7
f 5/22/8 4/23/8 8/24/8
f 5/25/9 6/26/9 7/27/9
f 6/28/10 5/29/10 8/30/10
f 6/31/11 1/32/11 7/33/11
f 1/34/12 6/35/12 8/36/12
usemtl nexus_shell
f 9/37/13 10/38/13 15/39/13
f 10/40/14 9/41/14 16/42/14
f 10/43/15 11/44/15 15/45/15
f 11/46/16 10/47/16 16/48/16
f 11/49/17 12/50/17 15/51/17
f 12/52/18 11/53/18 16/54/18
f 12/55/19 13/56/19 15/57/19
f 13/58/20 12/59/20 16/60/20
f 13/61/21 14/62/21 15/63/21
f 14/64/22 13/65/22 16/66/22
f 14/67/23 9/68/23 15/69/23
f 9/70/24 14/71/24 16/72/24
